<svg id="Layer_1" data-name="Layer 1" xmlns="http://www.w3.org/2000/svg" xmlns:xlink="http://www.w3.org/1999/xlink" viewBox="0 0 991.36 559.83"><defs><style>.cls-1{fill:#5b6270;}.cls-2{fill:#afafaf;}.cls-3{fill:#fff;}.cls-4{fill:#edcb3a;stroke:#f4df87;stroke-width:10px;}.cls-16,.cls-4,.cls-8{stroke-miterlimit:10;}.cls-5{fill:#3f3f3f;}.cls-6{fill:#ebebeb;}.cls-7{fill:#444;}.cls-8{fill:#2d2d2d;stroke:#424241;}.cls-9{fill:#383838;}.cls-10{fill:#b7b7b7;}.cls-11{fill:#c1c1c1;}.cls-12{fill:#333;}.cls-13{fill:#eeeced;}.cls-14{fill:#fc1206;}.cls-15{fill:#757575;}.cls-16{fill:#1e1e1e;stroke:#ededed;stroke-width:11px;}.cls-17{fill:#e22;}.cls-18,.cls-51,.cls-52,.cls-58{opacity:0.48;}.cls-18,.cls-51,.cls-52,.cls-53,.cls-54,.cls-55,.cls-57,.cls-58,.cls-59,.cls-61,.cls-63,.cls-64,.cls-66,.cls-77{isolation:isolate;}.cls-18{fill:url(#linear-gradient);}.cls-19{fill:#e3da85;}.cls-20{fill:#fc7a7a;}.cls-21{fill:#b1fcff;}.cls-22{fill:#ff7f5f;}.cls-23{fill:#71baff;}.cls-24{fill:#89ffb3;}.cls-25{fill:#ff604b;}.cls-26{fill:#ffd9b4;}.cls-27{fill:#b5b5b5;}.cls-28{fill:#6b6b6b;}.cls-29{fill:#50bb0b;}.cls-30{fill:#f94645;}.cls-31{fill:#3db0cf;}.cls-32{fill:#85cbcb;}.cls-33{fill:#f79f72;}.cls-34{fill:#3ca3ca;}.cls-35{fill:#f1fffb;}.cls-36{fill:#dd183f;}.cls-37{fill:#db1d1d;}.cls-38{fill:#fcfca2;}.cls-39{fill:#535766;}.cls-40{fill:#71ae43;}.cls-41{fill:#71af43;}.cls-42{fill:#88c440;}.cls-43{fill:#85c340;}.cls-44{fill:#a8ce38;}.cls-45{fill:#6cac44;}.cls-46{fill:#87c440;}.cls-47{fill:#a9d05c;}.cls-48{fill:#3a3d45;}.cls-49{fill:#63738b;}.cls-50{fill:#8e3f3f;}.cls-51{fill:url(#linear-gradient-2);}.cls-52{fill:url(#linear-gradient-3);}.cls-53,.cls-57,.cls-59,.cls-63,.cls-64,.cls-66{opacity:0.52;}.cls-53{fill:url(#linear-gradient-4);}.cls-54{fill:#939393;opacity:0.25;}.cls-55{fill:gray;opacity:0.05;}.cls-56{fill:#fcfcfc;}.cls-57{fill:url(#linear-gradient-5);}.cls-58{fill:url(#linear-gradient-6);}.cls-59{fill:url(#linear-gradient-7);}.cls-60{fill:#f44825;}.cls-61{fill:#3b9bea;opacity:0.59;}.cls-62{fill:#f9de15;}.cls-63{fill:url(#linear-gradient-8);}.cls-64{fill:url(#linear-gradient-9);}.cls-65{fill:#8c8c8c;}.cls-66{fill:url(#linear-gradient-10);}.cls-67,.cls-77{fill:#f9ceb9;}.cls-68{fill:#fad400;}.cls-69{fill:#00aa62;}.cls-70{fill:#dc9e74;}.cls-71{fill:#f3b381;}.cls-72{fill:#4b596a;}.cls-73{fill:#2b2b2b;}.cls-74{fill:#ddd;}.cls-75{fill:#cc0a0a;}.cls-76{fill:#3867b2;}.cls-77{opacity:0.53;}</style><linearGradient id="linear-gradient" x1="212.74" y1="108.98" x2="212.74" y2="81.26" gradientTransform="matrix(1, 0, 0, -1, 0, 559.89)" gradientUnits="userSpaceOnUse"><stop offset="0" stop-color="#8c8c8c"/><stop offset="0.5" stop-color="#afafaf"/></linearGradient><linearGradient id="linear-gradient-2" x1="281.09" y1="100.75" x2="281.09" y2="90.43" xlink:href="#linear-gradient"/><linearGradient id="linear-gradient-3" x1="792.3" y1="105.67" x2="792.3" y2="77.95" xlink:href="#linear-gradient"/><linearGradient id="linear-gradient-4" x1="753.05" y1="327.15" x2="743.21" y2="327.15" gradientTransform="matrix(1, 0, 0, -1, 0, 559.89)" gradientUnits="userSpaceOnUse"><stop offset="0" stop-color="#2c3a4f"/><stop offset="0.38" stop-color="#5b6270"/></linearGradient><linearGradient id="linear-gradient-5" x1="172.44" y1="477.21" x2="172.44" y2="442.38" xlink:href="#linear-gradient-4"/><linearGradient id="linear-gradient-6" x1="699.09" y1="100.75" x2="699.09" y2="90.43" xlink:href="#linear-gradient"/><linearGradient id="linear-gradient-7" x1="883.24" y1="487.83" x2="864.85" y2="487.83" xlink:href="#linear-gradient-4"/><linearGradient id="linear-gradient-8" x1="898.67" y1="427.47" x2="880.27" y2="427.47" xlink:href="#linear-gradient-4"/><linearGradient id="linear-gradient-9" x1="820.38" y1="455.18" x2="801.99" y2="455.18" xlink:href="#linear-gradient-4"/><linearGradient id="linear-gradient-10" x1="174.14" y1="329.96" x2="164.3" y2="329.96" xlink:href="#linear-gradient-4"/></defs><title>oblique-strats</title><rect class="cls-1" width="991.36" height="409.88"/><rect class="cls-2" y="428.56" width="991.36" height="131.27"/><rect class="cls-3" y="409.88" width="991.36" height="18.69"/><path class="cls-4" d="M308.21,452.66h348l55,93.51-450.36,1.12Z"/><path d="M754.6,448.74l.15,5.54a54.5,54.5,0,0,0,40.62.1l.37-5.64A39.88,39.88,0,0,1,754.6,448.74Z"/><path d="M174.9,445.52l.15,5.54a58,58,0,0,0,40.62.1l.37-5.64a39.88,39.88,0,0,1-41.14,0Z"/><ellipse class="cls-5" cx="775.16" cy="448.71" rx="20.57" ry="6.04"/><ellipse class="cls-5" cx="195.47" cy="445.52" rx="20.57" ry="6.04"/><rect class="cls-6" x="255.02" y="369.8" width="464.45" height="74.49" rx="10.53" ry="10.53"/><rect class="cls-7" x="262.69" y="377.55" width="116.77" height="58.39" rx="10.24" ry="10.24"/><rect class="cls-7" x="594.58" y="377.55" width="116.77" height="58.39" rx="10.24" ry="10.24"/><rect class="cls-7" x="391.91" y="377.85" width="191.08" height="58.39" rx="13.1" ry="13.1"/><rect class="cls-8" x="174.14" y="117.51" width="42.94" height="224.66"/><rect class="cls-8" x="753.7" y="121.08" width="42.94" height="224.66"/><rect class="cls-6" x="279.79" y="428.72" width="87.41" height="6.93"/><rect class="cls-9" x="191.97" y="342.17" width="6.99" height="103.28"/><rect class="cls-9" x="771.67" y="345.43" width="6.99" height="103.28"/><rect class="cls-2" x="285.37" y="431.63" width="76.82" height="2.14"/><path class="cls-10" d="M459,334l59.15-.09,4.94,30.47-70.54-.15Z"/><polygon class="cls-11" points="452.54 364.18 446.59 364.18 444.67 369.8 530.54 369.8 527.58 364.33 452.54 364.18"/><circle class="cls-5" cx="195.6" cy="194.49" r="14.32"/><circle class="cls-5" cx="195.6" cy="254.08" r="14.32"/><circle class="cls-5" cx="195.6" cy="310.86" r="14.32"/><circle class="cls-5" cx="775.16" cy="195.89" r="14.32"/><circle class="cls-5" cx="775.16" cy="255.49" r="14.32"/><circle class="cls-5" cx="775.16" cy="312.27" r="14.32"/><rect class="cls-5" x="181.46" y="130.96" width="28.28" height="13.97"/><rect class="cls-5" x="761.02" y="133.85" width="28.28" height="13.97"/><circle class="cls-12" cx="195.6" cy="194.49" r="6.19"/><circle class="cls-12" cx="195.6" cy="254.08" r="6.19"/><circle class="cls-12" cx="195.6" cy="310.86" r="6.19"/><circle class="cls-12" cx="775.16" cy="195.89" r="6.19"/><circle class="cls-12" cx="775.16" cy="255.49" r="6.19"/><circle class="cls-12" cx="775.16" cy="312.27" r="6.19"/><polygon class="cls-13" points="269.85 444.31 271.39 459.14 283.13 459.14 284.56 444.31 269.85 444.31"/><polygon class="cls-13" points="687.77 444.31 689.32 459.14 701.06 459.14 702.49 444.31 687.77 444.31"/><circle class="cls-5" cx="488.39" cy="325.93" r="3.06"/><circle class="cls-14" cx="497.67" cy="325.88" r="1.04"/><path class="cls-15" d="M195.6,180.17a14.32,14.32,0,0,0,0,28.64c-6.44-1.19-11.4-6.06-12.34-11.91C182.1,189.62,187.33,181.94,195.6,180.17Z"/><path class="cls-15" d="M195.6,239.76a14.32,14.32,0,0,0,0,28.64c-6.44-1.19-11.4-6.06-12.34-11.91C182.1,249.22,187.33,241.53,195.6,239.76Z"/><path class="cls-15" d="M195.6,296.55a14.32,14.32,0,0,0,0,28.64c-6.44-1.19-11.4-6.06-12.34-11.91C182.1,306,187.33,298.31,195.6,296.55Z"/><path class="cls-15" d="M775.16,181.58a14.32,14.32,0,0,1,0,28.64c6.44-1.19,11.4-6.06,12.34-11.91C788.67,191,783.44,183.34,775.16,181.58Z"/><path class="cls-15" d="M775.16,241.17a14.32,14.32,0,0,1,0,28.64c6.44-1.19,11.4-6.06,12.34-11.91C788.67,250.62,783.44,242.94,775.16,241.17Z"/><path class="cls-15" d="M775.16,298a14.32,14.32,0,1,1,0,28.64c6.44-1.19,11.4-6.06,12.34-11.91C788.67,307.4,783.44,299.72,775.16,298Z"/><rect class="cls-16" x="309.37" y="160.35" width="359.28" height="173.53"/><circle class="cls-11" cx="486.02" cy="334.88" r="3"/><circle class="cls-17" cx="498.18" cy="334.88" r="1.55"/><path class="cls-18" d="M175.05,451.06c-.58,1.07,7,7,41.09,27.57l34.33-3.14-34.8-24.34a58.12,58.12,0,0,1-20,3.62C183.57,454.82,175.62,450,175.05,451.06Z"/><rect class="cls-19" x="466.49" y="414.66" width="9.54" height="20.37"/><rect class="cls-3" x="477.01" y="417.93" width="3.18" height="17.1"/><rect class="cls-20" x="480.76" y="412.88" width="5.53" height="22.15"/><rect class="cls-21" x="487.9" y="414.66" width="5.53" height="20.37"/><rect class="cls-22" x="496.25" y="412.88" width="6.41" height="22.15"/><rect class="cls-23" x="538.25" y="412.88" width="6.41" height="22.15"/><rect class="cls-24" x="545.61" y="411.12" width="6.41" height="23.91"/><rect class="cls-25" x="542.31" y="420.11" width="26.05" height="3.84" transform="translate(75.09 927.87) rotate(-83.72)"/><rect class="cls-26" x="558.59" y="408.99" width="21.09" height="26.04"/><rect class="cls-3" x="506.64" y="403.27" width="27.63" height="31.53"/><rect class="cls-27" x="510.83" y="407.35" width="19.35" height="25.15"/><rect class="cls-28" x="514.06" y="410.79" width="12.9" height="19.13"/><rect class="cls-29" x="404.26" y="397.37" width="8.93" height="39.11"/><rect class="cls-30" x="413.18" y="401.64" width="8.93" height="34.84"/><rect class="cls-31" x="422.11" y="401.64" width="5.78" height="34.84"/><rect class="cls-3" x="431.02" y="422.68" width="32.72" height="12.45"/><rect class="cls-32" x="430.52" y="432.97" width="33.77" height="2.16"/><rect class="cls-32" x="430.52" y="422.68" width="33.77" height="2.16"/><rect class="cls-3" x="432.26" y="410.23" width="32.72" height="12.45"/><rect class="cls-33" x="431.76" y="420.52" width="33.77" height="2.16"/><rect class="cls-33" x="431.76" y="410.23" width="33.77" height="2.16"/><path class="cls-34" d="M274.38,341.27h22.38l-4.48,28.61H278.62Z"/><path class="cls-35" d="M273.51,341.36l24.24-.08v-1.39h-1V338.2h-22v1.54l-1.35.07Z"/><path class="cls-35" d="M277.93,327l2-.11,5.64,11.28h-1.88Z"/><polygon class="cls-36" points="277.93 327.02 279.93 326.91 280.62 328.3 278.59 328.3 277.93 327.02"/><polygon class="cls-36" points="278.49 328.12 280.48 328.01 281.18 329.39 279.15 329.39 278.49 328.12"/><polygon class="cls-36" points="280.02 331.12 282.01 331.01 282.7 332.39 280.68 332.39 280.02 331.12"/><polygon class="cls-36" points="280.66 332.39 282.66 332.28 283.35 333.67 281.32 333.67 280.66 332.39"/><polygon class="cls-36" points="282.25 335.51 284.25 335.4 284.94 336.79 282.91 336.79 282.25 335.51"/><path class="cls-35" d="M275.88,351.39a7.67,7.67,0,0,1,4.9-2.84c3-.31,4.68,2,9,2.8a15.63,15.63,0,0,0,5.36,0l-1.31,8.22c-1.22-.36-3.13-.93-5.45-1.71-3.7-1.24-4.7-1.74-6.23-1.56-1.07.13-3,.67-5.14,3.27Z"/><polygon class="cls-36" points="282.84 336.66 284.83 336.55 285.52 337.94 283.49 337.94 282.84 336.66"/><rect class="cls-3" x="299.4" y="340.19" width="23.83" height="2.17"/><rect class="cls-37" x="300.38" y="342.36" width="3.14" height="27.44"/><rect class="cls-3" x="303.52" y="342.36" width="3.14" height="27.44"/><rect class="cls-37" x="306.65" y="342.36" width="3.14" height="27.44"/><rect class="cls-3" x="309.79" y="342.36" width="3.14" height="27.44"/><rect class="cls-37" x="312.93" y="342.36" width="3.14" height="27.44"/><rect class="cls-3" x="316.07" y="342.36" width="3.14" height="27.44"/><rect class="cls-37" x="319.21" y="342.36" width="3.14" height="27.44"/><path class="cls-38" d="M299.4,340.19a2.69,2.69,0,0,1,.81-1.79c.64-.55,1.22-.32,2-.85s.53-1.25,1.27-2c1-1.07,2.12-.23,3.76-1.25,1.23-.77,1-1.51,2.13-1.88.88-.28,1.14.13,2.63-.13,1.17-.2,1.28-.5,1.88-.38.86.18.82.84,2,1.44s1.32.15,2,.69.57.92,1.38,1.88a7,7,0,0,0,1.36,1.23c.78.54,1,.49,1.51.85a3.35,3.35,0,0,1,1.11,2.18Z"/><rect class="cls-6" x="285.79" y="421.62" width="74.4" height="6.93"/><rect class="cls-39" x="299.19" y="423.2" width="48.71" height="4.1"/><circle class="cls-17" cx="324.64" cy="425.64" r="1.1"/><circle class="cls-17" cx="321.58" cy="425.64" r="1.1"/><circle class="cls-17" cx="327.46" cy="425.64" r="1.1"/><circle class="cls-17" cx="314" cy="432.7" r="0.55"/><path class="cls-40" d="M684.46,344.25a137.11,137.11,0,0,0,.34-16.58q-.11-2.83-.34-5.53l2.17-.68a12,12,0,0,0-.46,1.44,13.61,13.61,0,0,0-.29,4.45c.15,2.55-.11-.66.06,5.5.11,4.32.39,8.4.76,12.22Z"/><path class="cls-41" d="M684.94,318.76a6.8,6.8,0,0,1,4.61-3.65,5.52,5.52,0,0,1,.14,2.3c-.5,3.22-3.85,4.75-4.22,4.92Z"/><path class="cls-42" d="M685,328.88l-1.63-1.07c-.24-.62-2.13-5.2-6.89-6.6-4.5-1.32-9.7.76-12.57,5.26a16,16,0,0,0,18,2.43,6.31,6.31,0,0,1,3.14,2.18Z"/><path class="cls-41" d="M685.69,329l1.76-2.34c.21-.63,1.82-5.32,6.49-7,4.42-1.59,9.73.19,12.86,4.51a16,16,0,0,1-17.8,3.46,7.09,7.09,0,0,0-1.49,1.19,7.3,7.3,0,0,0-1.76,3.18Z"/><path class="cls-43" d="M684.46,322.14a7.19,7.19,0,0,1-4-3.1,11.41,11.41,0,0,1-1-4.73V312.9a7,7,0,0,1,3.48,1.5c2.7,2.24,3.43,6.7,1.82,11.17Z"/><path class="cls-44" d="M667.22,326.91c.19.24,3.12,3.71,7.47,3.15a8.19,8.19,0,0,0,5-2.67,10.19,10.19,0,0,0-5-2.28A10.51,10.51,0,0,0,667.22,326.91Z"/><path class="cls-45" d="M666.15,326a15.8,15.8,0,0,1,9.22-1.3,15.55,15.55,0,0,1,6.37,2.62,11.91,11.91,0,0,0-5.87-3.22,12.41,12.41,0,0,0-6.29.37A14.16,14.16,0,0,0,666.15,326Z"/><path class="cls-45" d="M672.81,324.5a10.11,10.11,0,0,0-1.85.92,10.23,10.23,0,0,0-2.64,2.43,16.29,16.29,0,0,1,5.63-3.32Z"/><path class="cls-45" d="M679.5,325.87a10,10,0,0,0-5.27,3,16.29,16.29,0,0,1,5.93-2.75Z"/><path class="cls-45" d="M675.25,324c-.27-.38-.58-.78-.94-1.2a14.76,14.76,0,0,0-1.07-1.13,7.17,7.17,0,0,1,2.63,2.44Z"/><path class="cls-44" d="M679.79,325.18a15.64,15.64,0,0,0-2-.86,7.25,7.25,0,0,1-1.5-.59,3.48,3.48,0,0,1-1.37-1.9,5.2,5.2,0,0,1,3.55,1.34A4.94,4.94,0,0,1,679.79,325.18Z"/><path class="cls-46" d="M703.32,325.34c-.19.24-3.12,3.71-7.47,3.15a8.19,8.19,0,0,1-5-2.67,10.19,10.19,0,0,1,5-2.28A10.51,10.51,0,0,1,703.32,325.34Z"/><path class="cls-44" d="M681.08,314.51a4.93,4.93,0,0,0,1.27,3.06,4.73,4.73,0,0,0,1.69,1.15,3.87,3.87,0,0,0-.88-3.06A3.72,3.72,0,0,0,681.08,314.51Z"/><path class="cls-47" d="M685.18,334.86l-.56,9.06a5.51,5.51,0,0,0,.69-1c.19-.37.7-1.51.48-4.39A21.08,21.08,0,0,0,685.18,334.86Z"/><path class="cls-41" d="M684.62,320a.44.44,0,0,1,0,.62l0,0a.42.42,0,0,1-.51,0,8.23,8.23,0,0,1-4-6.14,10.22,10.22,0,0,0,4.44,5.52Z"/><path class="cls-41" d="M682.28,318.22c.06-.46.11-1,.13-1.52s0-1.08,0-1.55a7.17,7.17,0,0,1,.27,3.57Z"/><path class="cls-44" d="M685.54,320.41c.17-.23.43-.58.72-1,.64-.94.81-1.25,1.2-1.74a4.24,4.24,0,0,1,1.22-1,10.06,10.06,0,0,0-1,1.62,14.68,14.68,0,0,1-.91,1.82,5.81,5.81,0,0,1-1.24,1.35Z"/><path class="cls-44" d="M704.68,324.11a15.8,15.8,0,0,0-9.27-.89,15.55,15.55,0,0,0-6.25,2.9,11.91,11.91,0,0,1,5.72-3.48,12.41,12.41,0,0,1,6.3.09A14.16,14.16,0,0,1,704.68,324.11Z"/><path class="cls-44" d="M698,322.91a10.11,10.11,0,0,1,1.89.84,10.23,10.23,0,0,1,2.75,2.31,16.29,16.29,0,0,0-5.77-3.06Z"/><path class="cls-44" d="M691.34,324.58a10,10,0,0,1,5.4,2.76,16.29,16.29,0,0,0-6-2.48Z"/><path class="cls-44" d="M695.5,322.51c.25-.39.54-.81.88-1.24s.69-.83,1-1.18a7.17,7.17,0,0,0-2.52,2.55Z"/><rect class="cls-48" x="669.38" y="343.64" width="32.11" height="5.2"/><polygon class="cls-49" points="672.06 348.84 675.13 369.78 696.31 369.78 698.82 348.84 672.06 348.84"/><polygon class="cls-50" points="673.1 355.93 697.97 355.93 697.41 360.55 673.77 360.55 673.1 355.93"/><polygon class="cls-51" points="271.39 459.14 283.37 469.46 290.79 466.93 283.13 459.14 271.39 459.14"/><path class="cls-52" d="M754.63,454.37c-.58,1.07,7,7,41.09,27.57L830,478.8l-34.8-24.34a58.12,58.12,0,0,1-20,3.62C763.15,458.12,755.19,453.32,754.63,454.37Z"/><path class="cls-53" d="M753,345.07l-9.84-1.32,1.61-219.16,8.23-4.18Z"/><polygon class="cls-54" points="490.66 339.78 490.66 364.33 490.66 369.89 444.67 369.8 446.59 364.18 452.54 364.18 457.75 339.78 490.66 339.78"/><rect class="cls-55" x="175.14" y="117.51" width="21.34" height="224.85"/><rect class="cls-55" x="755.36" y="121.55" width="21.34" height="224.85"/><rect class="cls-56" x="38.46" y="70.08" width="238.87" height="12.6"/><polygon class="cls-57" points="38.46 82.68 68.52 117.51 306.43 117.51 277.55 82.68 38.46 82.68"/><rect class="cls-19" x="101.42" y="49.43" width="9.54" height="20.37"/><rect class="cls-3" x="111.94" y="52.7" width="3.18" height="17.1"/><rect class="cls-20" x="115.69" y="47.65" width="5.53" height="22.15"/><rect class="cls-21" x="122.83" y="49.43" width="5.53" height="20.37"/><rect class="cls-22" x="131.18" y="47.65" width="6.41" height="22.15"/><rect class="cls-23" x="173.18" y="47.65" width="6.41" height="22.15"/><rect class="cls-24" x="180.54" y="45.89" width="6.41" height="23.91"/><rect class="cls-25" x="177.25" y="54.87" width="26.05" height="3.84" transform="translate(113.02 239.71) rotate(-83.72)"/><rect class="cls-3" x="138.91" y="57.38" width="32.72" height="12.45"/><rect class="cls-30" x="138.41" y="67.67" width="33.77" height="2.16"/><rect class="cls-30" x="138.41" y="57.38" width="33.77" height="2.16"/><rect class="cls-3" x="183.46" y="46.55" width="32.72" height="12.45" transform="translate(146.8 252.53) rotate(-89.93)"/><rect class="cls-29" x="188.08" y="51.67" width="33.77" height="2.16" transform="translate(151.96 257.65) rotate(-89.93)"/><rect class="cls-29" x="193.36" y="35.79" width="2.16" height="33.77"/><polygon class="cls-58" points="689.39 459.14 701.37 469.46 708.79 466.93 701.13 459.14 689.39 459.14"/><polygon class="cls-59" points="883.24 42.28 864.85 36.65 864.85 107.46 883.24 98.39 883.24 42.28"/><rect class="cls-3" x="820.38" y="70.74" width="56.38" height="64.34"/><rect class="cls-27" x="828.94" y="77.75" width="39.49" height="51.33"/><rect class="cls-60" x="835.52" y="83.39" width="26.32" height="39.05"/><rect class="cls-3" x="883.19" y="42.02" width="71.69" height="56.19" transform="translate(-0.19 2.57) rotate(-0.16)"/><rect class="cls-27" x="888.81" y="48.37" width="60.05" height="44.01" transform="translate(-0.19 2.57) rotate(-0.16)"/><rect class="cls-61" x="893.49" y="53.1" width="50.51" height="34.05"/><rect class="cls-3" x="898.67" y="107.46" width="41.46" height="47.32"/><rect class="cls-27" x="904.96" y="112.62" width="29.04" height="37.75"/><rect class="cls-62" x="909.8" y="116.76" width="19.36" height="28.72"/><polygon class="cls-63" points="898.67 107.22 880.27 102.45 880.27 162.38 898.67 154.71 898.67 107.22"/><polygon class="cls-64" points="820.38 70.71 801.99 64.27 801.99 145.15 820.38 134.79 820.38 70.71"/><rect class="cls-6" x="609.26" y="428.89" width="87.41" height="6.93"/><rect class="cls-2" x="614.84" y="431.81" width="76.82" height="2.14"/><rect class="cls-6" x="615.25" y="421.8" width="74.4" height="6.93"/><rect class="cls-39" x="628.65" y="423.38" width="48.71" height="4.1"/><circle class="cls-17" cx="654.11" cy="425.82" r="1.1"/><circle class="cls-17" cx="651.05" cy="425.82" r="1.1"/><circle class="cls-17" cx="643.47" cy="432.87" r="0.55"/><rect class="cls-65" x="620.86" y="432.36" width="17.56" height="1.07"/><path class="cls-66" d="M174.14,342.26l-9.84-1.32,1.61-219.16,8.23-4.18Z"/><path class="cls-67" d="M571.45,452.87a23.85,23.85,0,0,0-6.73-1.6c-1.48-.13-8.11-.71-9.24,1.69-.83,1.75,1.64,4.25,2.83,5.46a17.53,17.53,0,0,0,7.77,4.43A15.31,15.31,0,0,0,570,458,13.91,13.91,0,0,0,571.45,452.87Z"/><path class="cls-67" d="M567.26,429.57a23.85,23.85,0,0,0-6.73-1.6c-1.48-.13-8.11-.71-9.24,1.69-.83,1.75,1.64,4.25,2.83,5.46a17.53,17.53,0,0,0,7.77,4.43,15.31,15.31,0,0,0,3.89-4.8A13.91,13.91,0,0,0,567.26,429.57Z"/><rect class="cls-3" x="651.55" y="409.88" width="32.72" height="12.45"/><rect class="cls-68" x="651.05" y="420.16" width="33.77" height="2.16"/><rect class="cls-68" x="651.05" y="409.88" width="33.77" height="2.16"/><rect class="cls-3" x="652.79" y="397.43" width="32.72" height="12.45"/><rect class="cls-69" x="652.29" y="407.71" width="33.77" height="2.16"/><rect class="cls-69" x="652.29" y="397.43" width="33.77" height="2.16"/><path class="cls-70" d="M549.88,419.06,546,407.35l-24.87-3.58a14.55,14.55,0,0,0,1.79,2.91c3.2,4.06,7.38,5.26,13.82,7.47C539.72,415.19,544.24,416.8,549.88,419.06Z"/><path class="cls-71" d="M632.79,524.19l-10.06-21a46.94,46.94,0,0,0-9-7.29,49.85,49.85,0,0,0-8-4.07,39.41,39.41,0,0,1-12.4-2.12,37.68,37.68,0,0,1-7.37-3.48c-6.06-3.64-16.94-10.29-30.82-19l76.42-51.72h34.3a52.29,52.29,0,0,0,2.33,18.25c1.27,3.9,2,7.91,3.21,11.83a20.45,20.45,0,0,1,.86,6.91,20.06,20.06,0,0,1-.3,2.6l23.23,41.07Z"/><path class="cls-70" d="M557.81,444.13l-4.54-11.74-24.87-3.58a14.56,14.56,0,0,0,1.79,2.91c3,3.78,7.06,5.11,13.82,7.47C546.69,440.14,551.4,441.79,557.81,444.13Z"/><path class="cls-70" d="M555.17,467.21l3.26-1.36c2.42,2.22,27.84,24.85,55.11,18a42.83,42.83,0,0,0,13.43-6,26.64,26.64,0,0,0-9,12.37,23.27,23.27,0,0,0-1.19,7.76l-11-6.12a53.13,53.13,0,0,1-12.4-2.12c-6.72-2-10.75-4.72-22.49-12.36C567.88,475.43,562.4,471.86,555.17,467.21Z"/><path class="cls-72" d="M623.17,519.37l22,39.83H755.48L697.59,487Z"/><path class="cls-73" d="M572.37,492.46,519.5,335.32a7.13,7.13,0,0,1,4.49-9l53.82-18.08a7.13,7.13,0,0,1,9,4.49l53.42,160Z"/><path class="cls-73" d="M571.75,490.63c6.44,19.31,27.64,29.4,45.9,22.76,17.21-6.25,27.08-25.64,21.61-44Z"/><circle class="cls-74" cx="541.72" cy="349.31" r="5.97" transform="translate(-81.97 186.56) rotate(-18.19)"/><circle class="cls-74" cx="560.51" cy="343.13" r="5.97" transform="translate(-79.1 192.12) rotate(-18.19)"/><circle class="cls-74" cx="578.46" cy="337.23" r="5.97" transform="translate(-76.36 197.43) rotate(-18.19)"/><circle class="cls-74" cx="547.32" cy="364.93" r="5.97" transform="translate(-86.57 189.09) rotate(-18.19)"/><circle class="cls-74" cx="566.12" cy="358.76" r="5.97" transform="translate(-83.7 194.65) rotate(-18.19)"/><circle class="cls-74" cx="584.06" cy="352.86" r="5.97" transform="translate(-80.96 199.96) rotate(-18.19)"/><circle class="cls-74" cx="552.5" cy="380.7" r="5.97" transform="translate(-91.23 191.5) rotate(-18.19)"/><circle class="cls-74" cx="571.29" cy="374.52" r="5.97" transform="translate(-88.37 197.06) rotate(-18.19)"/><circle class="cls-74" cx="589.24" cy="368.63" r="5.97" transform="translate(-85.63 202.36) rotate(-18.19)"/><circle class="cls-74" cx="556.92" cy="396.71" r="5.97" transform="translate(-96.01 193.68) rotate(-18.19)"/><circle class="cls-74" cx="575.71" cy="390.54" r="5.97" transform="translate(-93.14 199.23) rotate(-18.19)"/><circle class="cls-74" cx="593.66" cy="384.64" r="5.97" transform="translate(-90.41 204.54) rotate(-18.19)"/><path class="cls-74" d="M578.19,402.36l2.86,8.71a15.11,15.11,0,0,0-8.78,18.24l-8.41,2.77a23.78,23.78,0,0,1,14.33-29.71Z"/><path class="cls-74" d="M581.56,401.25l2.86,8.71a15.11,15.11,0,0,1,17.9,9.46l8.41-2.77a23.78,23.78,0,0,0-29.17-15.41Z"/><path class="cls-74" d="M597.18,449.28l-2.86-8.71a15.11,15.11,0,0,0,8.78-18.24l8.41-2.77a23.78,23.78,0,0,1-14.33,29.71Z"/><path class="cls-74" d="M593.81,450.39,591,441.68a15.11,15.11,0,0,1-17.9-9.46L564.64,435a23.78,23.78,0,0,0,29.17,15.41Z"/><path class="cls-75" d="M567.85,316.68l7.23-2.32a3.35,3.35,0,0,1,4.21,2.16h0a3.35,3.35,0,0,1-2.16,4.21l-7.23,2.32a3.35,3.35,0,0,1-4.21-2.16h0A3.35,3.35,0,0,1,567.85,316.68Z"/><rect class="cls-75" x="571.34" y="468.49" width="11.76" height="5.51" rx="2.75" ry="2.75" transform="translate(-116.57 199.38) rotate(-17.83)"/><rect class="cls-69" x="587.45" y="463.31" width="11.76" height="5.51" rx="2.75" ry="2.75" transform="translate(-114.21 204.06) rotate(-17.83)"/><rect class="cls-68" x="602.52" y="458.47" width="11.76" height="5.51" rx="2.75" ry="2.75" transform="translate(-112 208.44) rotate(-17.83)"/><rect class="cls-76" x="617.29" y="453.71" width="11.76" height="5.51" rx="2.75" ry="2.75" transform="matrix(0.95, -0.31, 0.31, 0.95, -109.84, 212.73)"/><rect class="cls-74" x="573.96" y="476.96" width="11.76" height="5.51" rx="2.75" ry="2.75" transform="translate(-119.04 200.58) rotate(-17.83)"/><rect class="cls-74" x="590.07" y="471.76" width="11.76" height="5.51" rx="2.75" ry="2.75" transform="translate(-116.67 205.27) rotate(-17.83)"/><rect class="cls-74" x="605.13" y="466.92" width="11.76" height="5.51" rx="2.75" ry="2.75" transform="translate(-114.47 209.65) rotate(-17.83)"/><rect class="cls-74" x="619.9" y="462.18" width="11.76" height="5.51" rx="2.75" ry="2.75" transform="translate(-112.3 213.94) rotate(-17.83)"/><path class="cls-70" d="M555.17,467.21A136.17,136.17,0,0,0,539,461.33a13.2,13.2,0,0,1-4.35-1.93,12,12,0,0,1-4-4.83,41.36,41.36,0,0,0,9.26,4.11,45.78,45.78,0,0,0,22.94.74,8.63,8.63,0,0,1-1.31,3.44A11.11,11.11,0,0,1,555.17,467.21Z"/><path class="cls-71" d="M538.73,392.48,531.56,371l-2.78-.93a6.56,6.56,0,0,0-3.67,1.2c-2.42,1.8-3,5.51-1.31,9.15q1.59,1.81,3.54,3.68A57.93,57.93,0,0,0,538.73,392.48Z"/><path class="cls-71" d="M665.9,415.48a19.19,19.19,0,0,0-3.53-8c-2.19-2.91-4.7-4.51-8.67-7a71.42,71.42,0,0,0-9.23-5,98.65,98.65,0,0,1-11.93-3.89c-8.33-3.32-13-6.54-20.68-6.6a28.13,28.13,0,0,0-4.13.28l-27.5,4.45a13.5,13.5,0,0,0,2.78,9.7c4.7,5.67,15.08,7.45,25.08,3.38a21.82,21.82,0,0,0,8.6,6.16c3.87,1.49,7.33,1.45,11.8,4.23a22.21,22.21,0,0,1,3.11,2.33,61.85,61.85,0,0,0,34.3,0Z"/><path class="cls-70" d="M627.61,418.19c6.65.58,9-.7,9.93-2,1.16-1.65.24-3.68,1.91-7.3a15.72,15.72,0,0,1,1.81-3c-1.59,1.61-5.73,5.33-11.56,5.52-.8,0-3,0-8.49-2a63,63,0,0,1-13.13-6.66,7,7,0,0,0,3.86-7.83,11.31,11.31,0,0,1-3,4.94,13,13,0,0,1-4.61,2.84,31.56,31.56,0,0,1-10.45.68,30.91,30.91,0,0,1-9.28-2.44,19.84,19.84,0,0,0,5.9,3.19c8.17,2.76,15.81-.55,17.6-1.38a19.9,19.9,0,0,0,4.23,3.82,20.47,20.47,0,0,0,4.38,2.34c.77.29,1.7.77,2.83,1.2,3.21,1.24,3.79,1,6.88,2.26a31.68,31.68,0,0,1,4,2.14,15,15,0,0,1,1.16,1h0Z"/><path class="cls-71" d="M531.27,455.55c-.12-.17-2.59-3.74-.53-7.53,1.88-3.46,5.9-4.09,6.28-4.15a63.82,63.82,0,0,1,17.62,2.58,61,61,0,0,1,7.65,2.83,9.33,9.33,0,0,1,.62,10.13c-2.62,4.64-8.11,5.35-8.58,5.41-3.31-1-6.86-2.17-10.57-3.62A128.91,128.91,0,0,1,531.27,455.55Z"/><path class="cls-71" d="M529.48,430.75a8.1,8.1,0,0,1-1.46-7,9,9,0,0,1,6.76-6,46.28,46.28,0,0,1,9.79,1.57,44.63,44.63,0,0,1,8.86,3.46c.19.28,3.42,5.18.62,10.13a11.37,11.37,0,0,1-6.6,5q-7-2.61-14.11-5.54Z"/><path class="cls-71" d="M522.45,407.25a8.1,8.1,0,0,1-1.46-7,9,9,0,0,1,6.76-6,46.28,46.28,0,0,1,9.79,1.57,44.63,44.63,0,0,1,8.86,3.46c.19.28,3.42,5.18.62,10.13a11.37,11.37,0,0,1-6.6,5q-7-2.61-14.11-5.54Z"/><path class="cls-77" d="M561.54,451.72a23.85,23.85,0,0,0-6.73-1.6c-1.48-.13-8.11-.71-9.24,1.69-.83,1.75,1.64,4.25,2.83,5.46a17.53,17.53,0,0,0,7.77,4.43,15.31,15.31,0,0,0,3.89-4.8A13.91,13.91,0,0,0,561.54,451.72Z"/><path class="cls-77" d="M553.15,424.26a23.85,23.85,0,0,0-6.73-1.6c-1.48-.13-8.11-.71-9.24,1.69-.83,1.75,1.64,4.25,2.83,5.46a17.53,17.53,0,0,0,7.77,4.43,15.31,15.31,0,0,0,3.89-4.8A13.91,13.91,0,0,0,553.15,424.26Z"/><path class="cls-77" d="M545.06,400.66a23.85,23.85,0,0,0-6.73-1.6c-1.48-.13-8.11-.71-9.24,1.69-.83,1.75,1.64,4.25,2.83,5.46a17.53,17.53,0,0,0,7.77,4.43,15.31,15.31,0,0,0,3.89-4.8A13.91,13.91,0,0,0,545.06,400.66Z"/><rect class="cls-65" x="291.39" y="432.18" width="17.56" height="1.07"/></svg>